<svg width="168" height="43" viewBox="0 0 168 43" fill="none" xmlns="http://www.w3.org/2000/svg">
<path d="M58.2761 41.4627C56.8102 41.4972 55.7108 41.4143 54.971 41.193C54.2311 40.9787 53.8577 40.1627 53.8577 38.7522V5.43092C53.8577 4.29002 54.1412 3.5225 54.7151 3.12837C55.2821 2.73424 56.3954 2.58212 58.041 2.65818H59.3963C59.8665 2.69967 60.1016 2.53372 60.1016 2.16033C60.1016 1.82844 59.7074 1.65557 58.9192 1.65557H44.5784L36.6128 28.809C35.6171 25.7459 29.8711 12.5529 24.5884 6.19844C19.1605 -0.335817 14.1958 0.00299107 13.5735 0.00299107C9.91572 0.00299107 6.88714 1.11624 4.48779 3.3289C2.08844 5.54847 0.892221 8.35578 0.892221 11.737C0.892221 14.6065 1.59751 17.0819 3.01499 19.1701C4.55002 21.4519 7.46105 23.7337 11.7412 26.0086C15.5995 28.0968 17.8744 29.4936 18.5797 30.1989C18.9392 30.5722 19.2296 30.994 19.4509 31.4642C19.8104 32.2317 19.9902 33.1237 19.9902 34.1471C19.9902 35.1013 19.8104 35.9933 19.4509 36.8092C19.0913 37.632 18.5382 38.3719 17.8121 39.0495C16.3532 40.384 14.5692 41.0547 12.4464 41.0547C10.0471 41.0547 7.80678 40.1904 5.7255 38.4548C3.79634 36.8507 2.55863 34.5827 2.01238 31.6786C1.69431 29.9914 1.34167 29.1409 0.947538 29.1409C0.553408 29.1409 0.359801 29.459 0.359801 30.0882C0.359801 30.3233 0.401289 31.1116 0.477349 32.4461C0.511922 33.1168 0.532665 34.0226 0.532665 35.1566C0.532665 36.5741 0.456605 37.8118 0.29757 38.8697C0.103963 40.1697 0.000244141 41.0755 0.000244141 41.5802C0.000244141 42.1334 0.152365 42.41 0.470434 42.41C0.664042 42.41 0.823077 42.1956 0.940624 41.7669C1.29327 40.3494 1.81186 39.6441 2.47566 39.6441C2.71075 39.6441 2.98733 39.6995 3.3054 39.817C7.50945 41.4281 10.8146 42.2371 13.214 42.2371C13.2624 42.2371 13.3177 42.2371 13.3661 42.2371C16.4569 42.2164 19.119 41.4627 21.3386 39.976C21.8917 39.6165 22.4172 39.1947 22.9151 38.7383C25.4527 36.3943 26.7181 33.4418 26.7181 29.8601C26.7181 26.6794 25.7155 24.038 23.7103 21.9567C23.1433 21.369 22.3343 20.7052 21.2763 19.9584C20.7301 19.5781 20.1216 19.1701 19.4509 18.7414C18.2616 17.9947 16.8648 17.1718 15.2745 16.2868C11.8103 14.3576 9.47319 12.7811 8.25622 11.5365C7.03926 10.2988 6.43078 8.87437 6.43078 7.25636C6.43078 5.41018 7.07384 3.95812 8.38069 2.89328C9.68062 1.82843 11.4231 1.30293 13.6219 1.30293C14.5208 1.30293 15.3575 1.41356 16.125 1.65557C16.7058 1.82152 17.2382 2.05662 17.7499 2.36086C17.8536 2.42309 23.5651 4.38682 27.1952 13.8252C30.8323 23.2774 32.3811 40.2111 32.4226 40.3425C32.7752 41.4419 33.1694 41.9882 33.5981 41.9882C33.9922 41.9882 34.5039 40.8888 35.1331 38.6899L40.2637 20.6429C42.3312 13.5279 43.9976 8.34195 45.2768 5.07136V37.0927C45.2768 39.2569 45.2214 40.4324 45.1039 40.6329C44.7098 41.3036 43.6034 41.6217 41.7987 41.5802H39.7866C39.2403 41.5802 38.9638 41.7531 38.9638 42.085C38.9638 42.4169 39.2403 42.5828 39.7866 42.5828H59.2511C60.0393 42.5828 60.4265 42.3892 60.4265 41.9951C60.4265 41.601 59.7005 41.4281 58.2346 41.4696" fill="white"/>
<path d="M81.9037 22.6205C81.9037 24.5082 81.233 26.0639 79.8985 27.2947C78.564 28.5255 76.863 29.1409 74.7886 29.1409C73.5233 29.1409 71.7877 28.7191 69.5682 27.8686C69.4022 27.8064 69.257 27.7787 69.1325 27.7787C68.7799 27.7787 68.5102 28.1521 68.3235 28.8989C68.2613 29.1271 68.1783 29.2377 68.0746 29.2377C67.9087 29.2377 67.8257 29.0925 67.8257 28.8021C67.8257 28.5324 67.8741 28.0553 67.9778 27.3708C68.0608 26.8107 68.1023 26.1607 68.1023 25.414C68.1023 24.8124 68.0954 24.3353 68.0746 23.9827C68.0331 23.2774 68.0124 22.8625 68.0124 22.738C68.0124 22.4061 68.1161 22.2402 68.3235 22.2402C68.531 22.2402 68.7177 22.6827 68.8836 23.5747C69.174 25.1097 69.824 26.299 70.8404 27.1426C71.9398 28.0553 73.1153 28.5117 74.3807 28.5117C75.5008 28.5117 76.4412 28.159 77.2087 27.4538C77.9763 26.7485 78.3566 25.8911 78.3566 24.8746C78.3566 24.0034 78.1076 23.3119 77.6098 22.7934C77.2364 22.42 76.0333 21.687 74.0073 20.5876C71.7532 19.3845 70.2181 18.1883 69.4091 16.9851C68.6623 15.8857 68.289 14.5858 68.289 13.0715C68.289 11.2945 68.9182 9.81473 70.1835 8.64617C71.4489 7.47761 73.0393 6.88988 74.9684 6.88988C76.0056 6.88988 77.1119 7.1388 78.2943 7.63665C78.6885 7.8026 78.965 7.88557 79.131 7.88557C79.4421 7.88557 79.6496 7.61591 79.7533 7.07657C79.7948 6.88988 79.8847 6.79999 80.0299 6.79999C80.2373 6.79999 80.341 6.93828 80.341 7.20103C80.341 7.30475 80.3203 7.59516 80.2788 8.07227C80.2373 8.54937 80.2166 8.9435 80.2166 9.25466C80.2166 10.3333 80.2581 11.246 80.341 11.9859C80.3618 12.0481 80.3756 12.1311 80.3756 12.2348C80.3756 12.4215 80.2926 12.5114 80.1267 12.5114C79.94 12.5114 79.7533 12.1795 79.5666 11.5157C79.3799 10.8519 79.0549 10.195 78.5916 9.54507C78.1284 8.8951 77.6582 8.42491 77.1811 8.1345C76.5588 7.76111 75.8327 7.57442 75.0099 7.57442C73.8483 7.57442 72.9286 7.851 72.2441 8.41108C71.5595 8.97116 71.2207 9.73867 71.2207 10.7067C71.2207 11.5572 71.5388 12.304 72.1819 12.9609C72.8249 13.6108 74.0557 14.4475 75.8742 15.4639C78.1076 16.7085 79.5873 17.6973 80.3134 18.4441C81.3713 19.5435 81.8968 20.9264 81.8968 22.6067" fill="white"/>
<path d="M91.3757 19.5159C91.3965 17.9324 91.2858 16.833 91.0369 16.2176C90.788 15.6022 90.3524 15.2911 89.73 15.2911C88.4647 15.2911 87.7456 16.7016 87.5589 19.5159H91.3757ZM95.2894 24.9507C95.2894 25.4071 95.0197 26.0086 94.4803 26.7554C93.3187 28.3527 91.8113 29.1478 89.9444 29.1478C87.8562 29.1478 86.1345 28.484 84.7861 27.1634C83.4378 25.8427 82.7671 24.1417 82.7671 22.0673C82.7671 19.993 83.417 18.3473 84.7239 16.992C86.0308 15.6368 87.6557 14.9592 89.5987 14.9592C90.9263 14.9592 92.0533 15.2496 92.9868 15.8304C94.024 16.4735 94.6947 17.3931 95.0059 18.5962C95.0888 18.9696 95.151 19.4121 95.1925 19.9307C94.7154 19.9861 92.8001 20.0275 89.4465 20.0552C88.928 20.0552 88.278 20.0759 87.4897 20.1174C87.4275 20.8573 87.3929 21.4865 87.3929 22.0051C87.3929 24.4183 87.8977 26.1331 88.9141 27.1426C89.5157 27.7442 90.2486 28.0415 91.1199 28.0415C91.8459 28.0415 92.5443 27.7926 93.215 27.2947C93.8857 26.7969 94.3974 26.1538 94.75 25.3725C94.916 24.9784 95.0473 24.7847 95.1511 24.7847C95.234 24.7847 95.2755 24.847 95.2755 24.9714" fill="white"/>
<path d="M107.307 17.2479C107.307 17.8495 107.127 18.3404 106.782 18.7207C106.429 19.101 105.973 19.2946 105.413 19.2946C104.292 19.2946 103.732 18.776 103.732 17.7457C103.732 17.3931 103.864 17.0404 104.133 16.6878C104.196 16.6048 104.23 16.5357 104.23 16.4735C104.23 16.2868 104.099 16.1969 103.829 16.1969C103.138 16.1969 102.605 16.7431 102.239 17.8356C102.031 18.4579 101.935 19.9722 101.935 22.3923V27.3777C101.935 27.9378 102.211 28.2351 102.771 28.2766C103.103 28.2973 103.497 28.3112 103.954 28.3112C104.182 28.3319 104.299 28.4011 104.299 28.5255C104.299 28.6915 104.203 28.7744 104.023 28.7744H95.8844C95.6562 28.7744 95.5456 28.7053 95.5456 28.5739C95.5456 28.4426 95.6908 28.3734 95.9812 28.3734C96.8317 28.3527 97.3433 28.2628 97.5162 28.1107C97.6891 27.9585 97.779 27.4953 97.779 26.7347L97.7513 18.375C97.7513 17.6697 97.6545 17.1857 97.454 16.916C97.2535 16.6463 96.8178 16.4804 96.1333 16.4181C95.594 16.3767 95.2897 16.349 95.2137 16.3282C95.1376 16.3075 95.103 16.2384 95.103 16.1277C95.103 16.0171 95.186 15.9549 95.352 15.9549H96.4998C98.097 15.9549 99.8118 15.623 101.658 14.9592C101.762 15.374 101.81 15.8511 101.81 16.3905V17.6973C102.204 16.6947 102.633 15.9894 103.103 15.5815C103.566 15.1735 104.175 14.9661 104.922 14.9661C105.627 14.9661 106.201 15.1873 106.643 15.616C107.086 16.0517 107.314 16.5979 107.314 17.2617" fill="white"/>
<path d="M116.186 19.5159C116.206 17.9324 116.096 16.833 115.847 16.2176C115.598 15.6022 115.162 15.2911 114.54 15.2911C113.275 15.2911 112.555 16.7016 112.369 19.5159H116.186ZM120.099 24.9507C120.099 25.4071 119.829 26.0086 119.29 26.7554C118.129 28.3527 116.621 29.1478 114.754 29.1478C112.666 29.1478 110.944 28.484 109.596 27.1634C108.248 25.8427 107.577 24.1417 107.577 22.0673C107.577 19.993 108.227 18.3473 109.534 16.992C110.841 15.6368 112.465 14.9592 114.408 14.9592C115.736 14.9592 116.863 15.2496 117.797 15.8304C118.834 16.4735 119.505 17.3931 119.816 18.5962C119.899 18.9696 119.961 19.4121 120.002 19.9307C119.525 19.9861 117.61 20.0275 114.256 20.0552C113.738 20.0552 113.088 20.0759 112.3 20.1174C112.237 20.8573 112.203 21.4865 112.203 22.0051C112.203 24.4183 112.708 26.1331 113.724 27.1426C114.326 27.7442 115.058 28.0415 115.93 28.0415C116.656 28.0415 117.354 27.7926 118.025 27.2947C118.696 26.7969 119.207 26.1538 119.56 25.3725C119.726 24.9784 119.857 24.7847 119.961 24.7847C120.044 24.7847 120.085 24.847 120.085 24.9714" fill="white"/>
<path d="M136.776 28.5532C136.776 28.7192 136.514 28.8021 136.002 28.8021H129.357C129.067 28.8021 128.922 28.7261 128.922 28.567C128.922 28.4357 129.046 28.3665 129.288 28.3665H129.53C130.056 28.3665 130.367 28.2974 130.457 28.166C130.546 28.0277 130.595 27.5644 130.595 26.7762V20.7536C130.595 18.5271 130.45 17.1926 130.166 16.757C129.924 16.3836 129.482 16.1969 128.852 16.1969C128.223 16.1969 127.698 16.3905 127.29 16.7846C126.882 17.1788 126.681 17.6697 126.681 18.2713V27.6612C126.723 27.9102 126.813 28.0692 126.944 28.1383C127.075 28.2075 127.414 28.2559 127.953 28.2766C128.119 28.2766 128.202 28.3389 128.202 28.4633C128.202 28.5878 128.133 28.6569 127.988 28.6777C127.843 28.6984 127.324 28.7053 126.439 28.7053C125.554 28.7053 124.814 28.7192 124.233 28.733C123.093 28.7745 121.938 28.7952 120.755 28.7952C120.506 28.7952 120.382 28.7261 120.382 28.5809C120.382 28.4149 120.7 28.3319 121.329 28.3319C121.959 28.3319 122.325 28.2075 122.429 27.9586L122.519 27.5229V20.4009C122.519 18.3957 122.498 17.3585 122.456 17.2756C122.394 16.9644 122.118 16.8123 121.62 16.8123H120.562C120.23 16.8123 120.064 16.7432 120.064 16.6118C120.064 16.4804 120.188 16.3974 120.437 16.3767C122.747 16.273 124.586 15.7889 125.969 14.9177C126.135 14.8347 126.246 14.7932 126.308 14.7932C126.474 14.7932 126.557 14.9592 126.557 15.2911V17.0612C127.656 15.6299 129.06 14.9177 130.782 14.9177C132.503 14.9177 133.72 15.54 134.26 16.7777C134.488 17.2963 134.626 17.8771 134.681 18.5133C134.73 19.1563 134.757 20.4839 134.757 22.4891V26.9905C134.757 27.6336 134.806 28.007 134.916 28.1245C135.02 28.2351 135.352 28.2974 135.926 28.2974C136.5 28.2974 136.783 28.3803 136.783 28.5463" fill="white"/>
<path d="M142.952 8.86054C142.952 9.44136 142.751 9.93921 142.35 10.3541C141.949 10.769 141.458 10.9764 140.891 10.9764C140.324 10.9764 139.798 10.7828 139.397 10.3887C138.996 9.99452 138.796 9.49667 138.796 8.89511C138.796 8.29354 138.996 7.83718 139.397 7.46379C139.798 7.09041 140.317 6.90372 140.953 6.90372C141.527 6.90372 141.997 7.09041 142.385 7.46379C142.765 7.83718 142.958 8.30046 142.958 8.86054M145.13 28.5532C145.13 28.6984 145.033 28.7675 144.853 28.7675H137.026C136.777 28.7675 136.652 28.6984 136.652 28.567C136.652 28.4702 136.887 28.408 137.365 28.3942C138.07 28.3734 138.485 28.2974 138.609 28.1591C138.734 28.0208 138.796 27.6128 138.796 26.9283V17.967C138.796 17.1787 138.727 16.7016 138.595 16.5495C138.464 16.3905 138.049 16.3144 137.371 16.3144C136.936 16.3144 136.68 16.3075 136.611 16.2868C136.535 16.266 136.5 16.19 136.5 16.0655C136.5 15.9203 136.659 15.8511 136.964 15.8511C139.238 15.8304 141.188 15.4778 142.799 14.7932C142.841 15.0421 142.889 15.7267 142.952 16.8399V26.624C142.952 27.4745 143.028 27.9724 143.187 28.1176C143.339 28.2628 143.871 28.3319 144.784 28.3319C145.012 28.3319 145.123 28.408 145.123 28.5463" fill="white"/>
<path d="M155.28 26.7485C155.28 26.9767 155.08 27.274 154.686 27.6474C153.662 28.6223 152.259 29.1063 150.461 29.1063C148.815 29.1063 147.73 28.7053 147.211 27.8963C147.004 27.5851 146.879 27.2947 146.851 27.0251C146.824 26.7554 146.803 26.064 146.803 24.9438V23.4502C146.844 23.0561 146.865 22.6412 146.865 22.2056L146.803 21.5557V16.5219C146.803 16.1485 146.748 15.9341 146.651 15.8719C146.547 15.8097 146.236 15.782 145.717 15.782C145.095 15.782 144.784 15.699 144.784 15.5331C144.784 15.4086 144.895 15.3256 145.123 15.2842C147.066 15.2219 148.746 14.164 150.157 12.1173C150.343 11.8269 150.488 11.6817 150.592 11.6817C150.717 11.6817 150.779 11.8269 150.779 12.1173C150.758 13.9012 150.827 14.8693 150.993 15.0352C151.159 15.2012 151.664 15.2842 152.514 15.2842C153.365 15.2842 153.994 15.2427 154.347 15.1597C154.388 15.1389 154.43 15.132 154.471 15.132C154.554 15.132 154.596 15.1943 154.596 15.3256C154.596 15.6299 154.464 15.782 154.195 15.782C153.351 15.8028 152.418 15.8166 151.394 15.8166H150.966V16.4665C150.966 21.9844 151.007 25.2204 151.09 26.1677C151.277 27.3639 151.864 27.9585 152.853 27.9585C153.296 27.9585 153.863 27.6474 154.554 27.0251C154.893 26.7347 155.1 26.5895 155.183 26.5895C155.246 26.5895 155.28 26.6448 155.28 26.7416" fill="white"/>
<path d="M167.609 15.5054C167.609 15.6506 167.568 15.7405 167.485 15.7682C167.402 15.7959 167.111 15.8166 166.614 15.8166C166.054 15.8166 165.722 15.8443 165.618 15.9134L165.431 16.2522L165.058 17.3378C164.892 17.8357 164.518 18.8383 163.938 20.3526C163.896 20.477 163.44 21.7493 162.569 24.1694C160.522 29.9015 159.194 33.3727 158.593 34.5689C157.846 36.0555 156.892 36.8023 155.737 36.8023C155.073 36.8023 154.541 36.6087 154.14 36.2145C153.739 35.8204 153.531 35.3018 153.531 34.6588C153.531 33.6423 154.091 33.1376 155.205 33.1376C155.578 33.1376 155.875 33.262 156.103 33.511C156.207 33.6147 156.38 33.9051 156.629 34.3822C156.774 34.5896 156.968 34.6933 157.217 34.6933C157.632 34.6933 158.026 34.3476 158.413 33.6561C158.793 32.9647 159.319 31.6509 159.983 29.7287C159.817 29.3968 159.499 28.6638 159.021 27.5229C158.399 25.9533 157.569 23.8928 156.532 21.3413C156.283 20.719 155.723 19.3638 154.859 17.2756C154.568 16.5426 154.32 16.107 154.112 15.9687C153.905 15.8304 153.428 15.7475 152.681 15.7267C152.432 15.7267 152.307 15.6576 152.307 15.5054C152.307 15.3533 152.432 15.2911 152.681 15.2911H160.287C160.515 15.2911 160.626 15.3602 160.626 15.5054C160.626 15.6921 160.314 15.7751 159.692 15.7544C159.07 15.7336 158.759 15.865 158.759 16.1554C158.759 16.3628 158.842 16.6809 159.008 17.1165C159.236 17.6974 159.36 18.0362 159.381 18.1399C160.397 20.9541 161.227 23.0976 161.863 24.5704C163.786 19.6611 164.754 16.8676 164.754 16.1831C164.754 15.9549 164.518 15.8443 164.041 15.8443C163.046 15.8443 162.548 15.7544 162.548 15.5677C162.548 15.381 162.672 15.2911 162.921 15.2911C163.129 15.2911 163.336 15.298 163.544 15.3188C163.938 15.3602 164.477 15.381 165.155 15.381C165.238 15.381 165.542 15.3671 166.074 15.3326C166.6 15.3049 166.945 15.2842 167.118 15.2842H167.305C167.492 15.2842 167.582 15.3533 167.582 15.4985" fill="white"/>
<path d="M76.2123 42.3063C76.2123 42.3823 76.1362 42.4238 75.9772 42.4238H72.1604C72.0497 42.4238 72.0013 42.3892 72.0013 42.327C72.0013 42.2648 72.0566 42.2302 72.1604 42.2302H72.5545C72.9071 42.2371 73.1215 42.1749 73.2045 42.0435C73.2252 42.002 73.239 41.7738 73.239 41.3451V35.0667C72.9901 35.7098 72.6651 36.7262 72.2572 38.1229L71.2476 41.6632C71.1232 42.0919 71.0264 42.3132 70.9434 42.3132C70.8604 42.3132 70.7844 42.2025 70.7152 41.9882C70.6945 41.919 70.4455 41.1792 69.9754 39.7686C69.7956 39.2362 69.3185 37.7426 68.5302 35.2949V41.2967C68.5302 41.6425 68.5302 41.8499 68.544 41.919C68.551 41.9882 68.5855 42.0435 68.6478 42.085C68.7653 42.1887 68.9589 42.2302 69.2355 42.2233C69.5121 42.2164 69.6504 42.2579 69.6504 42.3477C69.6504 42.4031 69.5951 42.4307 69.4775 42.4307L68.4472 42.3823C68.2675 42.3754 68.0669 42.3823 67.8318 42.3961C67.5207 42.4169 67.3133 42.4238 67.2095 42.4238C67.0505 42.4238 66.9675 42.3892 66.9675 42.3201C66.9675 42.2578 67.0367 42.2302 67.1611 42.2302C67.4723 42.2302 67.6521 42.2302 67.7143 42.2164C67.9563 42.1887 68.0946 42.0988 68.1292 41.9467C68.1499 41.8568 68.1637 41.6632 68.1637 41.3659V35.8411C68.1637 35.2257 68.1292 34.8593 68.0531 34.7556C67.9771 34.6518 67.7074 34.5965 67.2234 34.5965C67.0989 34.5965 67.0367 34.5619 67.0367 34.4928C67.0367 34.4167 67.0989 34.3822 67.2303 34.3891H69.7195C69.7195 34.3891 69.7818 34.3891 69.844 34.4029C70.5009 36.5326 71.0609 38.3027 71.5173 39.7133L73.08 34.3891H73.322H74.8501H75.8942C76.0463 34.3891 76.1224 34.4237 76.1224 34.4859C76.1224 34.562 76.074 34.5896 75.9841 34.5827H75.7144C75.3895 34.5689 75.1751 34.5965 75.0645 34.6726C74.9538 34.7486 74.8985 34.9008 74.8985 35.122V41.6563C74.8985 41.9329 74.9677 42.0919 75.1198 42.1334C75.265 42.1749 75.4793 42.1956 75.7698 42.1887C76.0602 42.1818 76.1985 42.2164 76.1985 42.2924" fill="white"/>
<path d="M85.1042 40.3633C85.1042 40.3633 85.1042 40.7366 85.0904 41.4419C85.0835 41.8084 85.0766 42.0781 85.0766 42.2371C85.0766 42.3961 85.0766 42.4791 85.0766 42.4653C83.0437 42.3754 81.2598 42.3477 79.7316 42.3823H78.7636C78.6253 42.3823 78.5562 42.3547 78.5562 42.2924C78.5562 42.2509 78.57 42.2233 78.6046 42.2164C78.6391 42.2094 78.7567 42.1956 78.9572 42.1818C79.3168 42.161 79.5173 42.0573 79.5449 41.8706C79.5588 41.7738 79.5657 41.6563 79.5657 41.5318V35.6752C79.5657 35.2119 79.5657 34.9561 79.5519 34.9146C79.5449 34.7901 79.5034 34.7072 79.4343 34.6588C79.3652 34.6104 79.22 34.5896 79.0056 34.5896C78.7636 34.5896 78.646 34.555 78.646 34.4859C78.646 34.4098 78.7498 34.3683 78.9641 34.3683C79.1785 34.3683 79.4689 34.3683 79.8492 34.3545C81.2667 34.3269 82.4283 34.313 83.3272 34.3338H84.1155C84.2883 34.3338 84.4958 34.3199 84.7378 34.2992L84.8415 35.5576C84.883 35.9587 84.8968 36.2076 84.8968 36.2975C84.8968 36.3736 84.8553 36.415 84.7793 36.415C84.7032 36.415 84.6548 36.3113 84.6271 36.1177C84.558 35.5853 84.3436 35.1981 83.9841 34.9561C83.6245 34.7141 83.0921 34.5896 82.3868 34.5896C82.1725 34.5896 81.7991 34.6034 81.2736 34.6242V38.04C82.1241 38.0469 82.6634 37.9846 82.8847 37.8602C83.1059 37.7357 83.2511 37.4038 83.3341 36.8714C83.3756 36.5879 83.4309 36.4427 83.507 36.4427C83.5761 36.4427 83.6107 36.5118 83.6107 36.6501C83.6107 36.7884 83.5969 37.0719 83.5761 37.5075C83.5692 37.6528 83.5623 37.8533 83.5623 38.0953C83.5623 38.7591 83.5692 39.2569 83.583 39.5957C83.59 39.6441 83.5969 39.6995 83.5969 39.7686C83.5969 39.8585 83.5623 39.9069 83.4931 39.9069C83.4378 39.9069 83.4033 39.8862 83.3894 39.8516C83.3756 39.817 83.3479 39.6925 83.3203 39.4782C83.2442 38.9319 83.1336 38.5931 83.0022 38.4548C82.8639 38.3165 82.5528 38.2543 82.0687 38.2543H81.2805V42.1403H82.0204C82.8708 42.1265 83.3894 42.1057 83.5761 42.085C83.8112 42.0573 84.0325 41.9674 84.2468 41.8291C84.4404 41.677 84.5718 41.5111 84.6479 41.3313C84.7239 41.1515 84.8 40.8265 84.883 40.3494C84.9037 40.2319 84.9452 40.1766 85.0005 40.1766C85.0628 40.1766 85.0973 40.2319 85.0973 40.3494" fill="white"/>
<path d="M93.6168 38.3442C93.6168 37.0719 93.4301 36.1385 93.0498 35.5438C92.6695 34.9492 92.0818 34.6588 91.2659 34.6588C90.9755 34.6588 90.7818 34.6933 90.685 34.7487C90.5606 34.8247 90.4983 35.0045 90.4983 35.2949V41.2276C90.4983 41.7393 90.526 42.0228 90.5882 42.0712C90.6781 42.1541 90.8856 42.2025 91.2036 42.2025C92.8078 42.2025 93.6099 40.9164 93.6099 38.3442M95.622 38.3373C95.622 39.2155 95.4215 39.9761 95.0205 40.6191C94.6056 41.2898 93.9971 41.7808 93.2019 42.085C92.6626 42.2924 91.8536 42.3961 90.7818 42.3961H87.9607C87.8432 42.3961 87.7878 42.3685 87.7878 42.3063C87.7878 42.2302 87.8985 42.1956 88.1128 42.2025C88.4447 42.2095 88.6452 42.1541 88.7144 42.0297C88.742 41.9744 88.7628 41.7393 88.7628 41.3244V35.4401C88.7628 35.1013 88.742 34.8939 88.6936 34.8178C88.6176 34.6795 88.4171 34.6104 88.1059 34.6242C87.94 34.6311 87.8501 34.5965 87.8501 34.5066C87.8501 34.4375 87.9054 34.4029 88.0091 34.4029H88.2165C88.6798 34.4029 89.1293 34.4029 89.558 34.4168C90.1734 34.4237 90.6505 34.4306 90.9893 34.4306C92.3929 34.4306 93.4716 34.721 94.2184 35.2949C95.1518 36.0209 95.6151 37.0374 95.6151 38.3511" fill="white"/>
<path d="M102.066 42.2993C102.066 42.3685 102.018 42.3961 101.914 42.3961C101.859 42.3961 101.81 42.3961 101.762 42.3823C101.299 42.3616 100.905 42.3477 100.573 42.3477C100.241 42.3477 99.7152 42.3616 99.0445 42.3823C98.8232 42.3892 98.6573 42.3961 98.5466 42.3961C98.4291 42.3961 98.3738 42.3616 98.3738 42.2924C98.3738 42.2509 98.3945 42.2302 98.436 42.2233C98.4775 42.2163 98.6296 42.2094 98.8785 42.2025C99.1205 42.1541 99.2588 42.085 99.2934 41.9882C99.3349 41.8914 99.3487 41.5802 99.3487 41.0547V35.0598C99.3418 34.9215 99.3349 34.8593 99.3349 34.8662C99.3349 34.6726 99.1413 34.5758 98.7541 34.5758C98.5397 34.5758 98.4291 34.5481 98.4291 34.4928C98.4291 34.4375 98.4429 34.4098 98.4775 34.4029C98.5121 34.396 98.6089 34.3891 98.7817 34.3891H101.824C101.928 34.3891 101.976 34.4167 101.976 34.479C101.976 34.5204 101.956 34.5481 101.921 34.5619C101.886 34.5758 101.769 34.5827 101.568 34.5896C101.326 34.6034 101.181 34.6518 101.126 34.7417L101.091 34.963V41.4903C101.091 41.8222 101.126 42.0158 101.202 42.0781C101.278 42.1403 101.52 42.1818 101.949 42.2025C102.018 42.2094 102.052 42.244 102.052 42.2993" fill="white"/>
<path d="M108.724 39.5612C108.724 39.5612 108.69 39.4644 108.641 39.3399C108.33 38.4479 108.109 37.8187 107.964 37.4522C107.929 37.3485 107.874 37.2033 107.811 37.0097L107.735 36.8023C107.597 37.1342 107.431 37.5905 107.231 38.1783C107.009 38.8351 106.843 39.2915 106.747 39.5543H108.724V39.5612ZM112.403 42.2717C112.403 42.3339 112.375 42.3685 112.313 42.3823C112.257 42.3961 112.105 42.4031 111.87 42.4031C111.808 42.4031 111.635 42.4031 111.352 42.3892C110.785 42.3754 110.391 42.3685 110.169 42.3685C109.913 42.3685 109.692 42.3685 109.499 42.3823C109.111 42.3961 108.849 42.4031 108.71 42.4031C108.503 42.4031 108.399 42.3616 108.399 42.2855C108.399 42.2094 108.62 42.168 109.056 42.1541C109.167 42.1541 109.243 42.1541 109.298 42.1334C109.423 42.1196 109.485 42.0711 109.485 41.9951C109.485 41.9536 109.436 41.7946 109.346 41.5111L109.104 40.7574C109.056 40.5845 108.959 40.2734 108.807 39.817H107.694C107.369 39.8101 107.03 39.817 106.664 39.8308C106.594 39.983 106.463 40.3356 106.269 40.8749L106.014 41.6286C105.972 41.7462 105.958 41.8361 105.958 41.9052C105.958 42.0366 106.041 42.1196 106.214 42.161C106.256 42.168 106.442 42.1818 106.781 42.2094C106.892 42.2164 106.94 42.2509 106.94 42.3063C106.94 42.3685 106.871 42.4031 106.733 42.4031H104.672C104.562 42.4031 104.513 42.3616 104.513 42.2855C104.513 42.2371 104.631 42.2094 104.873 42.1956C105.184 42.1818 105.377 42.1196 105.46 42.0228C105.543 41.9259 105.682 41.601 105.875 41.0478C106.021 40.6606 106.235 40.0936 106.511 39.3399L107.908 35.4885C107.977 35.3225 108.074 35.0529 108.199 34.6933C108.282 34.4306 108.351 34.2992 108.399 34.2992C108.448 34.2992 108.531 34.479 108.655 34.8316C108.807 35.288 109.492 37.0858 110.688 40.225C110.84 40.626 110.999 41.034 111.151 41.4488C111.283 41.8015 111.414 42.0228 111.545 42.0988C111.649 42.161 111.884 42.1887 112.264 42.1818C112.354 42.1818 112.403 42.2164 112.403 42.2855" fill="white"/>
</svg>
