<svg width="102" height="134" viewBox="0 0 102 134" fill="none" xmlns="http://www.w3.org/2000/svg">
<path fill-rule="evenodd" clip-rule="evenodd" d="M99.3293 122.341C99.3293 127.397 95.0145 131.537 89.6536 131.537H11.6379C6.277 131.537 1.96216 127.44 1.96216 122.341V11.114C1.96216 6.05825 6.277 1.96133 11.6379 1.96133H89.6972C95.0581 1.96133 99.3729 6.05825 99.3729 11.1576V122.341H99.3293Z" fill="white"/>
<path d="M95.188 127.397C96.5827 126.089 97.4108 124.302 97.4108 122.297V11.114C97.4108 9.15269 96.5391 7.32215 95.188 6.01462C93.7933 4.7071 91.832 3.879 89.6964 3.879H11.637C9.45778 3.879 7.54007 4.7071 6.14538 6.01462C4.75068 7.32215 3.92258 9.1091 3.92258 11.114V122.297C3.92258 124.259 4.79427 126.089 6.14538 127.397C7.54007 128.704 9.50136 129.532 11.637 129.532H89.6964C91.8756 129.532 93.7933 128.704 95.188 127.397ZM101.29 122.341C101.29 125.435 99.9822 128.225 97.8466 130.23C95.7546 132.235 92.8344 133.455 89.6528 133.455H11.637C8.45534 133.455 5.57878 132.235 3.44315 130.23C1.30753 128.225 0 125.435 0 122.341V11.114C0 8.0195 1.30753 5.23011 3.44315 3.22523C5.5352 1.22036 8.45534 0 11.637 0H89.6964C92.878 0 95.7546 1.22036 97.8902 3.22523C100.026 5.23011 101.333 8.0195 101.333 11.114V122.297L101.29 122.341Z" fill="#0050A0"/>
<path fill-rule="evenodd" clip-rule="evenodd" d="M93.2267 118.375C93.2267 123.038 89.4349 126.787 84.7714 126.787H16.562C11.8985 126.787 8.10669 123.038 8.10669 118.375V16.562C8.10669 11.8985 11.8985 8.15027 16.562 8.15027H84.7714C89.4349 8.15027 93.2267 11.8985 93.2267 16.562V118.375Z" fill="#0050A0"/>
<path fill-rule="evenodd" clip-rule="evenodd" d="M88.2582 95.2316C88.2582 98.6748 84.9023 101.464 80.8053 101.464H20.5283C16.3878 101.464 13.0754 98.6748 13.0754 95.2316V19.613C13.0754 16.1698 16.4314 13.3804 20.5283 13.3804H80.8053C84.9458 13.3804 88.2582 16.1698 88.2582 19.613V95.2316Z" fill="white"/>
<path d="M42.5814 72.8729L42.2764 35.5212L19.569 35.6084L19.6126 17.8696H81.7201V35.2597L59.187 35.2161L59.2306 72.8729H42.5814Z" fill="#F9D500"/>
<path d="M42.5814 72.8729L42.2764 35.5212L19.569 35.6084L19.6126 17.8696H81.7201V35.2597L59.187 35.2161L59.2306 72.8293L42.5814 72.8729Z" stroke="#0050A0" stroke-width="0.227097"/>
<path d="M82.0688 38.9207H59.4922V56.7902H82.0688V38.9207Z" fill="#0050A0"/>
<path fill-rule="evenodd" clip-rule="evenodd" d="M42.3203 57.0954L42.0588 39.1387H41.8409H34.0393C26.4556 39.1387 19.5693 46.4608 19.5693 54.0445V79.9771C19.5693 79.9771 19.0899 94.4471 34.3008 94.4471H82.1127V76.316H39.7924C38.3977 76.316 37.4824 74.7034 37.4824 73.5702V59.7976C37.4824 58.4029 38.8771 57.0518 40.2282 57.0518H42.3203V57.0954Z" fill="#0050A0"/>
<path d="M20.3976 110.355H24.0151V106.999H12.9883V110.399L16.6494 110.355V121.818H20.3976V110.355Z" fill="#F9D500"/>
<path d="M33.3423 107.043C33.9524 107.043 36.6547 107.609 36.7418 111.576C36.829 115.542 34.3883 116.501 33.5166 116.501C32.6449 116.501 28.9403 116.501 28.9403 116.501V121.818H25.2356V106.999C25.2356 106.999 32.7757 106.999 33.3858 106.999M28.8967 110.355V113.232C28.8967 113.232 31.2938 113.232 31.8604 113.232C32.427 113.232 32.8193 112.36 32.8193 111.75C32.8193 111.14 32.427 110.399 31.904 110.399C31.381 110.399 28.8967 110.399 28.8967 110.399V110.355Z" fill="#F9D500"/>
<path d="M57.7058 113.406H61.3233C61.3233 113.406 61.672 109.789 58.7954 107.958C56.1368 106.258 52.0835 106.869 50.3401 109.702C48.8147 112.186 49.1633 115.585 49.5992 117.372C50.2965 120.162 53.0423 121.818 55.2215 121.862C57.2264 121.862 58.9698 121.513 60.3209 119.421C61.2362 118.026 61.2797 116.108 61.2797 116.108H57.4879C57.4879 116.108 57.3136 118.113 55.5266 118.113C54.0448 118.157 53.4782 117.067 53.2603 116.544C52.868 115.542 52.6501 113.275 53.5218 111.794C54.3934 110.312 55.6574 110.442 56.3547 110.791C57.0521 111.14 57.4008 111.968 57.5315 112.97C57.5315 113.188 57.5315 113.363 57.5315 113.363H57.7058V113.406Z" fill="#F9D500"/>
<path d="M35.8254 121.818L40.0967 106.999H44.7602L48.9443 121.818H44.8474L44.4115 120.292H40.4454L39.9659 121.818H35.869H35.8254ZM42.4067 111.532L41.2735 116.501H43.6706L42.4067 111.532Z" fill="#F9D500"/>
<path d="M71.0418 113.406H74.6593C74.6593 113.406 75.0079 109.789 72.1314 107.958C69.4727 106.258 65.4194 106.869 63.676 109.702C62.1506 112.186 62.4993 115.585 62.9351 117.372C63.6325 120.162 66.3783 121.818 68.5575 121.862C70.5624 121.862 72.3057 121.513 73.6568 119.421C74.5721 118.026 74.6157 116.108 74.6157 116.108H70.8239C70.8239 116.108 70.6495 118.113 68.8626 118.113C67.3807 118.157 66.8141 117.067 66.5962 116.544C66.2039 115.542 65.986 113.275 66.8577 111.794C67.7294 110.312 68.9933 110.442 69.6907 110.791C70.388 111.14 70.7367 111.968 70.8674 112.97C70.8674 113.188 70.8674 113.363 70.8674 113.363H71.0418V113.406Z" fill="#F9D500"/>
<path d="M75.052 121.818L79.3233 106.999H83.9868L88.1709 121.818H84.0739L83.6381 120.292H79.6719L79.1925 121.818H75.0956H75.052ZM81.6768 111.532L80.5436 116.501H82.9408L81.6768 111.532Z" fill="#F9D500"/>
</svg>
