<svg width="361" height="54" viewBox="0 0 361 54" fill="none" xmlns="http://www.w3.org/2000/svg">
<path d="M19.6889 46.6667H26.6667V6.48889H16.4889C6.26667 6.48889 0.888889 11.7333 0.888889 19.5111C0.888889 25.6889 3.82222 29.3333 9.11111 33.0667L0 46.6667H7.55556L17.7333 31.4667L14.2222 29.1111C9.91111 26.2222 7.82222 23.9556 7.82222 19.1111C7.82222 14.8444 10.8444 11.9556 16.5333 11.9556H19.6444V46.6667H19.6889ZM154.489 47.2445C157.644 47.2445 159.911 46.6667 161.6 45.4667V39.8667C159.867 41.0667 157.778 41.8222 154.889 41.8222C149.956 41.8222 147.956 38 147.956 32C147.956 25.6889 150.444 22.4444 154.933 22.4444C157.6 22.4444 160.178 23.3778 161.556 24.2222V18.4C160.133 17.6 157.556 17.0222 154.178 17.0222C145.378 17.0222 140.844 23.3333 140.844 32.1778C140.844 41.8667 145.289 47.2445 154.489 47.2445ZM111.511 44.7111V39.1111C109.378 40.5333 105.778 41.8222 102.444 41.8222C97.4222 41.8222 95.5111 39.4667 95.2445 34.6222H111.822V30.9778C111.822 20.8444 107.378 17.0667 100.489 17.0667C92.0889 17.0222 88.0889 23.4222 88.0889 32.2222C88.0889 42.3556 93.0667 47.2445 101.822 47.2445C106.222 47.2445 109.467 46.0889 111.511 44.7111ZM48.5333 17.6V29.1111H39.3333V17.6H32.4445V46.6667H39.3333V34.5333H48.5333V46.6667H55.4222V17.6H48.5333ZM86.4 41.2445H83.3333V17.6H63.2889V20.0889C63.2889 27.2 62.8445 36.4 60.4 41.2445H58.2667V53.3333H64.6222V46.6667H80.0444V53.2889H86.4V41.2445ZM133.467 46.6667H141.244L130.222 31.0222L139.911 17.6H132.978L123.289 31.0222V17.6H116.4V46.6667H123.289V32.4L133.467 46.6667ZM100.356 22.4444C103.778 22.4444 104.8 25.2889 104.8 28.9333V29.5111H95.2C95.3778 24.8889 97.0667 22.4444 100.356 22.4444ZM76.4889 41.2445H66.7556C68.6667 36.8445 69.2 28.9333 69.2 23.9111V23.0667H76.4889V41.2445Z" fill="white"/>
<path d="M200.444 53.3333C215.172 53.3333 227.111 41.3943 227.111 26.6667C227.111 11.9391 215.172 0 200.444 0C185.717 0 173.778 11.9391 173.778 26.6667C173.778 41.3943 185.717 53.3333 200.444 53.3333Z" fill="white"/>
<path d="M200.445 0C203.322 3.42336e-05 206.092 0.457699 208.688 1.30078L202.612 20H184.863L182.694 26.667H200.446L195.246 42.667H202.579L207.779 26.667H227.111C227.111 41.3943 215.172 53.3328 200.445 53.333C185.717 53.333 173.778 41.3944 173.778 26.667C173.778 11.9394 185.717 0 200.445 0ZM215.033 4.34277C220.514 7.93174 224.594 13.483 226.271 20H209.945L215.033 4.34277Z" fill="url(#paint0_linear_9_880)"/>
<path d="M266.907 6.51108H240.444V46.6666H247.435V11.9422H259.915V46.6666H266.907V6.51108Z" fill="white"/>
<path d="M269.992 40.7155L270.397 41.0044C270.666 41.1585 271.051 41.2355 271.552 41.2355C272.669 41.2355 273.401 40.6577 273.748 39.5022C274.094 38.3466 274.325 36.2281 274.441 33.1466L275.019 17.6044H294.721V46.6666H287.845V23.0355H280.854L280.45 33.4355C280.334 36.6325 280.045 39.2518 279.583 41.2933C279.121 43.3347 278.351 44.837 277.272 45.7999C276.194 46.7629 274.672 47.2444 272.708 47.2444C271.899 47.2444 271.244 47.1481 270.743 46.9555L269.992 46.6666V40.7155Z" fill="white"/>
<path d="M353.338 47.2444C348.754 47.2444 345.326 45.954 343.053 43.3733C340.819 40.754 339.702 37.0177 339.702 32.1644C339.702 29.1984 340.203 26.5792 341.205 24.3066C342.206 22.034 343.689 20.2622 345.653 18.991C347.656 17.6814 350.122 17.0266 353.049 17.0266C354.744 17.0266 356.208 17.1614 357.44 17.431C358.711 17.6622 359.713 17.9896 360.445 18.4133V24.2488C359.751 23.8251 358.808 23.4207 357.613 23.0355C356.419 22.6503 355.148 22.4577 353.8 22.4577C351.566 22.4577 349.833 23.2666 348.6 24.8844C347.406 26.4636 346.809 28.8325 346.809 31.991C346.809 34.9955 347.348 37.3836 348.427 39.1555C349.505 40.9273 351.277 41.8133 353.742 41.8133C355.206 41.8133 356.477 41.6399 357.556 41.2933C358.634 40.9466 359.597 40.4651 360.445 39.8488V45.4533C358.788 46.6473 356.419 47.2444 353.338 47.2444Z" fill="white"/>
<path fill-rule="evenodd" clip-rule="evenodd" d="M332.627 20.9555C330.315 18.3362 327.311 17.0266 323.613 17.0266C320.339 17.0266 317.585 18.0666 315.351 20.1466C313.117 22.1881 311.75 25.1733 311.249 29.1021H307.32V17.6044H300.444V46.6666H307.32V34.5333H311.191C311.576 38.6547 312.886 41.8133 315.12 44.0088C317.392 46.1659 320.224 47.2444 323.613 47.2444C327.311 47.2444 330.315 45.954 332.627 43.3733C334.976 40.754 336.151 36.9984 336.151 32.1066C336.151 27.2533 334.976 23.5362 332.627 20.9555ZM327.658 39.5022C326.772 41.0429 325.424 41.8133 323.613 41.8133C321.803 41.8133 320.435 41.0429 319.511 39.5022C318.625 37.9614 318.182 35.5155 318.182 32.1644C318.182 28.7747 318.625 26.3096 319.511 24.7688C320.435 23.2281 321.803 22.4577 323.613 22.4577C325.424 22.4577 326.772 23.2281 327.658 24.7688C328.582 26.3096 329.044 28.7555 329.044 32.1066C329.044 35.4962 328.582 37.9614 327.658 39.5022Z" fill="white"/>
<defs>
<linearGradient id="paint0_linear_9_880" x1="173.778" y1="23.111" x2="227.111" y2="23.111" gradientUnits="userSpaceOnUse">
<stop stop-color="#FF5C4D"/>
<stop offset="0.4" stop-color="#EB469F"/>
<stop offset="1" stop-color="#8341EF"/>
</linearGradient>
</defs>
</svg>
